<svg width="40" height="40" viewBox="0 0 40 40" fill="none" xmlns="http://www.w3.org/2000/svg">
<path fill-rule="evenodd" clip-rule="evenodd" d="M1.66663 4.73002C1.66663 3.91758 1.98937 3.13841 2.56386 2.56392C3.13834 1.98943 3.91751 1.66669 4.72996 1.66669H35.2666C35.6692 1.66603 36.068 1.7448 36.4402 1.89847C36.8123 2.05214 37.1505 2.27771 37.4354 2.56225C37.7202 2.8468 37.9462 3.18473 38.1002 3.55671C38.2543 3.92868 38.3335 4.3274 38.3333 4.73002V35.2667C38.3337 35.6694 38.2548 36.0682 38.1009 36.4404C37.9471 36.8125 37.7213 37.1507 37.4367 37.4355C37.152 37.7204 36.8139 37.9463 36.4419 38.1003C36.0698 38.2544 35.671 38.3336 35.2683 38.3334H4.72996C4.32754 38.3334 3.92906 38.2541 3.55729 38.1C3.18552 37.946 2.84775 37.7202 2.56327 37.4355C2.27879 37.1509 2.05318 36.813 1.89933 36.4412C1.74548 36.0693 1.66641 35.6708 1.66663 35.2684V4.73002ZM16.18 15.6467H21.145V18.14C21.8616 16.7067 23.695 15.4167 26.45 15.4167C31.7316 15.4167 32.9833 18.2717 32.9833 23.51V33.2134H27.6383V24.7034C27.6383 21.72 26.9216 20.0367 25.1016 20.0367C22.5766 20.0367 21.5266 21.8517 21.5266 24.7034V33.2134H16.18V15.6467ZM7.01329 32.985H12.36V15.4167H7.01329V32.9834V32.985ZM13.125 9.68669C13.135 10.1445 13.0536 10.5997 12.8854 11.0255C12.7171 11.4514 12.4655 11.8394 12.1453 12.1667C11.8251 12.4941 11.4428 12.7541 11.0207 12.9317C10.5986 13.1093 10.1454 13.2007 9.68746 13.2007C9.22956 13.2007 8.77627 13.1093 8.3542 12.9317C7.93213 12.7541 7.54977 12.4941 7.22957 12.1667C6.90937 11.8394 6.65778 11.4514 6.48956 11.0255C6.32134 10.5997 6.23988 10.1445 6.24996 9.68669C6.26975 8.78811 6.6406 7.93301 7.2831 7.3045C7.9256 6.67599 8.78867 6.32405 9.68746 6.32405C10.5863 6.32405 11.4493 6.67599 12.0918 7.3045C12.7343 7.93301 13.1052 8.78811 13.125 9.68669V9.68669Z" fill="url(#paint0_linear_56_399)"/>
<defs>
<linearGradient id="paint0_linear_56_399" x1="20" y1="1.66669" x2="20" y2="38.3334" gradientUnits="userSpaceOnUse">
<stop stop-color="#A8FFFA"/>
<stop offset="1" stop-color="#55D7CF"/>
</linearGradient>
</defs>
</svg>
