<?xml version="1.0" encoding="iso-8859-1"?>
<!-- Generator: Adobe Illustrator 19.0.0, SVG Export Plug-In . SVG Version: 6.00 Build 0)  -->
<svg version="1.1" id="Layer_1" xmlns="http://www.w3.org/2000/svg" xmlns:xlink="http://www.w3.org/1999/xlink" x="0px" y="0px"
	 viewBox="0 0 485 485" style="enable-background:new 0 0 485 485;" xml:space="preserve">
<g>
	<g>
		<rect x="242.5" y="7.5" style="fill:#E7ECED;" width="235" height="235"/>
		<polygon style="fill:#E7ECED;" points="242.5,475 242.5,477.5 7.5,477.5 7.5,242.5 242.5,242.5 		"/>
		<polygon style="fill:#AFB6BB;" points="477.5,477.5 242.5,477.5 242.5,475 242.5,242.5 477.5,242.5 		"/>
		<rect x="7.5" y="7.5" style="fill:#AFB6BB;" width="235" height="235"/>
	</g>
	<g>
		<path style="fill:#231F20;" d="M0,0v485h485V0H0z M470,235H250V15h220V235z M235,15v220H15V15H235z M15,250h220v220H15V250z
			 M250,470V250h220v220H250z"/>
		<polygon style="fill:#231F20;" points="120,197.5 135,197.5 135,130 202.5,130 202.5,115 135,115 135,47.5 120,47.5 120,115 
			52.5,115 52.5,130 120,130 		"/>
		<polygon style="fill:#231F20;" points="187.804,312.804 177.196,302.196 127.5,351.893 77.804,302.196 67.196,312.804 
			116.893,362.5 67.196,412.196 77.804,422.804 127.5,373.107 177.196,422.804 187.804,412.196 138.107,362.5 		"/>
		<rect x="282.5" y="115" style="fill:#231F20;" width="150" height="15"/>
		<rect x="282.5" y="385" style="fill:#231F20;" width="150" height="15"/>
		<rect x="282.5" y="315" style="fill:#231F20;" width="150" height="15"/>
	</g>
</g>
<g>
</g>
<g>
</g>
<g>
</g>
<g>
</g>
<g>
</g>
<g>
</g>
<g>
</g>
<g>
</g>
<g>
</g>
<g>
</g>
<g>
</g>
<g>
</g>
<g>
</g>
<g>
</g>
<g>
</g>
</svg>
