<svg width="49" height="48" viewBox="0 0 49 48" fill="none" xmlns="http://www.w3.org/2000/svg">
<g clip-path="url(#clip0_102_13)">
<path d="M14.5592 9C15.9422 9 17.2202 9.105 18.3932 9.42C19.5632 9.63 20.5262 10.068 21.3812 10.593C22.2362 11.118 22.8722 11.871 23.3042 12.834C23.7242 13.794 23.9522 14.967 23.9522 16.245C23.9522 17.733 23.6342 19.011 22.8842 19.971C22.2392 20.931 21.1862 21.789 19.8932 22.422C21.7112 22.95 23.0942 23.91 23.9372 25.188C24.7802 26.466 25.3202 28.059 25.3202 29.877C25.3202 31.365 25.0052 32.643 24.4652 33.711C23.9284 34.7873 23.1197 35.7046 22.1192 36.372C21.1592 37.017 19.9862 37.542 18.7082 37.86C17.4564 38.1915 16.1689 38.3688 14.8742 38.388L0.597168 38.409V9H14.5592ZM13.7042 20.934C14.8742 20.934 15.8342 20.619 16.5752 20.079C17.3132 19.539 17.6402 18.588 17.6402 17.418C17.6402 16.77 17.5352 16.14 17.3252 15.717C17.096 15.2896 16.7665 14.9242 16.3652 14.652C15.9306 14.4133 15.4652 14.2357 14.9822 14.124C14.4542 14.019 13.9142 14.019 13.2812 14.019H7.10717V20.949C7.10717 20.934 13.7042 20.934 13.7042 20.934ZM14.0192 33.513C14.6642 33.513 15.2972 33.408 15.8372 33.303C16.3652 33.198 16.9052 32.985 17.3252 32.655C17.7452 32.325 18.0752 32.01 18.3932 31.485C18.6032 30.957 18.8132 30.312 18.8132 29.562C18.8132 28.074 18.3932 27.006 17.5352 26.256C16.6802 25.611 15.5072 25.296 14.1242 25.296H7.10717V33.498H14.0222L14.0192 33.513ZM34.5932 33.408C35.4492 34.262 36.7272 34.688 38.4272 34.686C39.5972 34.686 40.6652 34.368 41.5232 33.828C42.3752 33.188 42.9052 32.548 43.1132 31.908H48.3332C47.4752 34.461 46.1972 36.279 44.4992 37.452C42.8012 38.517 40.7702 39.15 38.3192 39.15C36.7516 39.1595 35.1967 38.8693 33.7382 38.295C32.4233 37.8098 31.2506 37.0033 30.3272 35.949C29.3396 34.9683 28.6064 33.7614 28.1912 32.433C27.6662 31.05 27.4412 29.562 27.4412 27.849C27.4412 26.256 27.6512 24.753 28.1912 23.37C28.7312 21.99 29.4692 20.814 30.4322 19.749C31.3922 18.789 32.5652 17.931 33.8432 17.403C35.2678 16.8343 36.7882 16.5441 38.3222 16.548C40.1402 16.548 41.7332 16.863 43.1162 17.613C44.4962 18.363 45.5672 19.209 46.4222 20.487C47.2772 21.657 47.9102 23.04 48.3452 24.531C48.5552 26.019 48.6602 27.519 48.5552 29.22H33.1052C33.1052 30.96 33.7352 32.55 34.5932 33.408ZM41.3132 22.212C40.5632 21.462 39.3872 21.039 38.0042 21.039C37.0442 21.039 36.3062 21.249 35.6612 21.567C35.0162 21.885 34.5932 22.317 34.1732 22.737C33.7815 23.1491 33.5205 23.6679 33.4232 24.228C33.3152 24.753 33.2132 25.188 33.2132 25.608H42.8012C42.5912 24.03 42.0542 22.962 41.3132 22.212ZM31.9322 11.028H43.8662V13.899H31.9322V11.028Z" fill="white" fill-opacity="0.941176"/>
</g>
<defs>
<clipPath id="clip0_102_13">
<rect width="48" height="48" fill="white" transform="translate(0.597168)"/>
</clipPath>
</defs>
</svg>
