<svg width="46" height="48" viewBox="0 0 46 48" fill="none" xmlns="http://www.w3.org/2000/svg">
<path d="M43.8415 32.1455C44.3621 32.1455 44.8614 32.3664 45.2295 32.7595C45.5977 33.1527 45.8045 33.6859 45.8045 34.242V37.0372C45.8045 39.8173 44.7704 42.4835 42.9297 44.4493C41.089 46.4151 38.5924 47.5195 35.9893 47.5195H9.81525C7.21208 47.5195 4.71554 46.4151 2.87482 44.4493C1.0341 42.4835 0 39.8173 0 37.0372V34.2531C0 33.6971 0.206821 33.1639 0.574964 32.7707C0.943107 32.3776 1.44242 32.1567 1.96305 32.1567C2.48368 32.1567 2.98299 32.3776 3.35114 32.7707C3.71928 33.1639 3.9261 33.6971 3.9261 34.2531V37.0372C3.9261 38.7053 4.54656 40.305 5.65099 41.4845C6.75542 42.6639 8.25335 43.3266 9.81525 43.3266H35.9893C37.5512 43.3266 39.0491 42.6639 40.1535 41.4845C41.2579 40.305 41.8784 38.7053 41.8784 37.0372V34.242C41.8784 33.6859 42.0852 33.1527 42.4534 32.7595C42.8215 32.3664 43.3208 32.1455 43.8415 32.1455Z" fill="#F2F3FF"/>
<path d="M24.8654 2.09645C24.8654 1.54044 24.6586 1.0072 24.2904 0.614036C23.9223 0.220875 23.423 0 22.9023 0C22.3817 0 21.8824 0.220875 21.5143 0.614036C21.1461 1.0072 20.9393 1.54044 20.9393 2.09645V21.5795H12.3542C11.9866 21.9725 11.7801 22.5054 11.7801 23.0609C11.7801 23.6165 11.9866 24.1493 12.3542 24.5424L21.5151 34.3259C21.8832 34.7185 22.3821 34.939 22.9023 34.939C23.4225 34.939 23.9215 34.7185 24.2896 34.3259L33.4505 24.5424C33.8181 24.1493 34.0246 23.6165 34.0246 23.0609C34.0246 22.5054 33.8181 21.9725 33.4505 21.5795H24.8654V2.09645Z" fill="#F2F3FF"/>
</svg>
