<svg width="32" height="32" viewBox="0 0 32 32" fill="none" xmlns="http://www.w3.org/2000/svg">
<path d="M6.94853 17.3529C6.94853 18.0412 6.73235 18.6235 6.3 19.1C5.86765 19.5676 5.26765 19.8809 4.5 20.0397V22.1309H2.99118V20.1191C1.82647 20.0221 0.869118 19.6074 0.119118 18.875L1.19118 17.7103C1.82647 18.3015 2.55882 18.5971 3.38824 18.5971C3.82059 18.5971 4.16029 18.5 4.40735 18.3059C4.65441 18.1118 4.77794 17.8471 4.77794 17.5118C4.77794 17.2912 4.73382 17.1103 4.64559 16.9691C4.55735 16.8191 4.39853 16.6868 4.16912 16.5721C3.93971 16.4485 3.60882 16.3206 3.17647 16.1882C2.20588 15.8794 1.51324 15.5132 1.09853 15.0897C0.692647 14.6662 0.489706 14.1235 0.489706 13.4618C0.489706 12.8 0.719118 12.2485 1.17794 11.8074C1.63676 11.3574 2.24118 11.0794 2.99118 10.9735V9.0147H4.5V10.9735C5.37353 11.1147 6.10588 11.4721 6.69706 12.0456L5.73088 13.1838C5.14853 12.6897 4.50882 12.4426 3.81177 12.4426C3.44118 12.4426 3.15 12.5176 2.93824 12.6676C2.72647 12.8176 2.62059 13.0294 2.62059 13.3029C2.62059 13.4971 2.66471 13.6559 2.75294 13.7794C2.85 13.9029 3.01765 14.0221 3.25588 14.1368C3.49412 14.2426 3.85147 14.3706 4.32794 14.5206C5.21912 14.8029 5.87647 15.1559 6.3 15.5794C6.73235 16.0029 6.94853 16.5941 6.94853 17.3529ZM11.208 10.3382C10.8198 10.3382 10.5551 10.4 10.4139 10.5235C10.2727 10.6382 10.2021 10.8412 10.2021 11.1324V13.5941C10.2021 14.15 10.0918 14.5559 9.87126 14.8118C9.65067 15.0676 9.30214 15.2574 8.82567 15.3809C9.28449 15.4779 9.62861 15.6588 9.85802 15.9235C10.0874 16.1794 10.2021 16.5853 10.2021 17.1412V19.6029C10.2021 19.8941 10.2727 20.0971 10.4139 20.2118C10.5639 20.3353 10.8286 20.3971 11.208 20.3971V21.8529C10.4315 21.8529 9.82714 21.7691 9.39478 21.6015C8.96243 21.4426 8.66243 21.2044 8.49478 20.8868C8.32714 20.5779 8.24331 20.1721 8.24331 19.6691V17.3C8.24331 16.9029 8.18155 16.625 8.05802 16.4662C7.94331 16.3074 7.71831 16.2279 7.38302 16.2279V14.5206C7.71831 14.5206 7.94331 14.4412 8.05802 14.2824C8.18155 14.1147 8.24331 13.8324 8.24331 13.4353V11.0662C8.24331 10.5544 8.32714 10.1441 8.49478 9.83529C8.66243 9.51765 8.96243 9.27941 9.39478 9.12059C9.82714 8.96176 10.4315 8.88235 11.208 8.88235V10.3382ZM27.1249 8.88235C27.9014 8.88235 28.5014 8.96176 28.9249 9.12059C29.3573 9.27941 29.6573 9.51765 29.8249 9.83529C29.9926 10.1441 30.0764 10.5544 30.0764 11.0662V13.4353C30.0764 13.8324 30.1381 14.1147 30.2617 14.2824C30.3852 14.4412 30.6102 14.5206 30.9367 14.5206V16.2279C30.6102 16.2279 30.3852 16.3074 30.2617 16.4662C30.1381 16.625 30.0764 16.9029 30.0764 17.3V19.6691C30.0764 20.1721 29.9926 20.5779 29.8249 20.8868C29.6573 21.2044 29.3573 21.4426 28.9249 21.6015C28.5014 21.7691 27.9014 21.8529 27.1249 21.8529V20.3971C27.5043 20.3971 27.7646 20.3353 27.9058 20.2118C28.047 20.0971 28.1176 19.8941 28.1176 19.6029V17.1412C28.1176 16.5941 28.2323 16.1882 28.4617 15.9235C28.6911 15.6588 29.0396 15.4779 29.5073 15.3809C29.0308 15.2574 28.6823 15.0676 28.4617 14.8118C28.2411 14.5559 28.1308 14.15 28.1308 13.5941V11.1324C28.1308 10.8412 28.0602 10.6382 27.919 10.5235C27.7779 10.4 27.5131 10.3382 27.1249 10.3382V8.88235Z" fill="#707CFF"/>
<path d="M15.38 10.8279C16.5889 10.8279 17.5286 11.0794 18.1992 11.5824C18.8697 12.0853 19.205 12.8309 19.205 13.8191C19.205 14.8515 18.8742 15.6324 18.2124 16.1618C17.5594 16.6824 16.6815 16.9426 15.5786 16.9426H14.5859V20H12.4153V10.8279H15.38ZM15.3933 15.3809C15.905 15.3809 16.2933 15.2618 16.558 15.0235C16.8315 14.7765 16.9683 14.375 16.9683 13.8191C16.9683 12.8574 16.43 12.3765 15.3536 12.3765H14.5859V15.3809H15.3933ZM26.962 10.8279L24.4075 20H21.7075L19.0605 10.8279H21.3502L23.0972 18.3059L24.7384 10.8279H26.962Z" fill="white"/>
</svg>
