<svg width="49" height="48" viewBox="0 0 49 48" fill="none" xmlns="http://www.w3.org/2000/svg">
<g clip-path="url(#clip0_102_11)">
<path d="M24.5972 0C11.3372 0 0.597229 10.74 0.597229 24C0.597229 34.62 7.46723 43.59 17.0072 46.77C18.2072 46.98 18.6572 46.26 18.6572 45.63C18.6572 45.06 18.6272 43.17 18.6272 41.16C12.5972 42.27 11.0372 39.69 10.5572 38.34C10.2872 37.65 9.11723 35.52 8.09723 34.95C7.25723 34.5 6.05723 33.39 8.06723 33.36C9.95723 33.33 11.3072 35.1 11.7572 35.82C13.9172 39.45 17.3672 38.43 18.7472 37.8C18.9572 36.24 19.5872 35.19 20.2772 34.59C14.9372 33.99 9.35723 31.92 9.35723 22.74C9.35723 20.13 10.2872 17.97 11.8172 16.29C11.5772 15.69 10.7372 13.23 12.0572 9.93C12.0572 9.93 14.0672 9.3 18.6572 12.39C20.5772 11.85 22.6172 11.58 24.6572 11.58C26.6972 11.58 28.7372 11.85 30.6572 12.39C35.2472 9.27 37.2572 9.93 37.2572 9.93C38.5772 13.23 37.7372 15.69 37.4972 16.29C39.0272 17.97 39.9572 20.1 39.9572 22.74C39.9572 31.95 34.3472 33.99 29.0072 34.59C29.8772 35.34 30.6272 36.78 30.6272 39.03C30.6272 42.24 30.5972 44.82 30.5972 45.63C30.5972 46.26 31.0472 47.01 32.2472 46.77C37.0124 45.1627 41.1533 42.101 44.0864 38.0161C47.0196 33.9312 48.5973 29.0289 48.5972 24C48.5972 10.74 37.8572 0 24.5972 0Z" fill="white"/>
</g>
<defs>
<clipPath id="clip0_102_11">
<rect width="48" height="48" fill="white" transform="translate(0.597229)"/>
</clipPath>
</defs>
</svg>
