<svg width="48" height="48" viewBox="0 0 48 48" fill="none" xmlns="http://www.w3.org/2000/svg">
<g clip-path="url(#clip0_128_242)">
<path d="M25.3 31.34C25.58 30.62 25.4 29.8 24.84 29.24L20.66 25.12L20.72 25.06C24.2 21.18 26.68 16.72 28.14 12H32.02C33.1 12 34 11.1 34 10.02V9.98C34 8.9 33.1 8 32.02 8H20V6C20 4.9 19.1 4 18 4C16.9 4 16 4.9 16 6V8H3.98C2.9 8 2 8.9 2 9.98C2 11.08 2.9 11.96 3.98 11.96H24.34C23 15.84 20.88 19.5 18 22.7C16.38 20.92 15.02 18.98 13.88 16.94C13.56 16.36 12.98 16 12.32 16C10.94 16 10.06 17.5 10.74 18.7C12 20.96 13.54 23.12 15.34 25.12L6.6 33.74C5.8 34.52 5.8 35.8 6.6 36.58C7.38 37.36 8.64 37.36 9.44 36.58L18 28L22.04 32.04C23.06 33.06 24.8 32.68 25.3 31.34ZM35 20C33.8 20 32.72 20.74 32.3 21.88L24.96 41.48C24.48 42.7 25.4 44 26.7 44C27.48 44 28.18 43.52 28.46 42.78L30.24 38H39.74L41.54 42.78C41.82 43.5 42.52 44 43.3 44C44.6 44 45.52 42.7 45.06 41.48L37.72 21.88C37.28 20.74 36.2 20 35 20ZM31.76 34L35 25.34L38.24 34H31.76Z" fill="url(#paint0_linear_128_242)"/>
</g>
<defs>
<linearGradient id="paint0_linear_128_242" x1="-1.02261" y1="-1.86667" x2="46.7571" y2="50.8579" gradientUnits="userSpaceOnUse">
<stop stop-color="#6C79FF"/>
<stop offset="1" stop-color="#1526D7"/>
</linearGradient>
<clipPath id="clip0_128_242">
<rect width="48" height="48" fill="white"/>
</clipPath>
</defs>
</svg>
