<svg width="49" height="48" viewBox="0 0 49 48" fill="none" xmlns="http://www.w3.org/2000/svg">
<g clip-path="url(#clip0_102_12)">
<path d="M0.597168 3.438C0.597168 1.539 2.17517 0 4.12217 0H45.0722C47.0192 0 48.5972 1.539 48.5972 3.438V44.562C48.5972 46.461 47.0192 48 45.0722 48H4.12217C2.17517 48 0.597168 46.461 0.597168 44.562V3.438ZM15.4262 40.182V18.507H8.22317V40.182H15.4262ZM11.8262 15.546C14.3372 15.546 15.9002 13.884 15.9002 11.802C15.8552 9.675 14.3402 8.058 11.8742 8.058C9.40817 8.058 7.79717 9.678 7.79717 11.802C7.79717 13.884 9.36017 15.546 11.7782 15.546H11.8262ZM26.5502 40.182V28.077C26.5502 27.429 26.5982 26.781 26.7902 26.319C27.3092 25.026 28.4942 23.685 30.4862 23.685C33.0932 23.685 34.1342 25.671 34.1342 28.587V40.182H41.3372V27.75C41.3372 21.09 37.7852 17.994 33.0452 17.994C29.2232 17.994 27.5102 20.094 26.5502 21.573V21.648H26.5022L26.5502 21.573V18.507H19.3502C19.4402 20.541 19.3502 40.182 19.3502 40.182H26.5502Z" fill="white"/>
</g>
<defs>
<clipPath id="clip0_102_12">
<rect width="48" height="48" fill="white" transform="translate(0.597168)"/>
</clipPath>
</defs>
</svg>
