<svg width="120" height="19" viewBox="0 0 120 19" fill="none" xmlns="http://www.w3.org/2000/svg">
<path d="M9.45 12.4C9.45 13.336 9.156 14.128 8.568 14.776C7.98 15.412 7.164 15.838 6.12 16.054V18.898H4.068V16.162C2.484 16.03 1.182 15.466 0.162 14.47L1.62 12.886C2.484 13.69 3.48 14.092 4.608 14.092C5.196 14.092 5.658 13.96 5.994 13.696C6.33 13.432 6.498 13.072 6.498 12.616C6.498 12.316 6.438 12.07 6.318 11.878C6.198 11.674 5.982 11.494 5.67 11.338C5.358 11.17 4.908 10.996 4.32 10.816C3 10.396 2.058 9.898 1.494 9.322C0.942 8.746 0.666 8.008 0.666 7.108C0.666 6.208 0.978 5.458 1.602 4.858C2.226 4.246 3.048 3.868 4.068 3.724V1.06H6.12V3.724C7.308 3.916 8.304 4.402 9.108 5.182L7.794 6.73C7.002 6.058 6.132 5.722 5.184 5.722C4.68 5.722 4.284 5.824 3.996 6.028C3.708 6.232 3.564 6.52 3.564 6.892C3.564 7.156 3.624 7.372 3.744 7.54C3.876 7.708 4.104 7.87 4.428 8.026C4.752 8.17 5.238 8.344 5.886 8.548C7.098 8.932 7.992 9.412 8.568 9.988C9.156 10.564 9.45 11.368 9.45 12.4ZM15.2429 2.86C14.7149 2.86 14.3549 2.944 14.1629 3.112C13.9709 3.268 13.8749 3.544 13.8749 3.94V7.288C13.8749 8.044 13.7249 8.596 13.4249 8.944C13.1249 9.292 12.6509 9.55 12.0029 9.718C12.6269 9.85 13.0949 10.096 13.4069 10.456C13.7189 10.804 13.8749 11.356 13.8749 12.112V15.46C13.8749 15.856 13.9709 16.132 14.1629 16.288C14.3669 16.456 14.7269 16.54 15.2429 16.54V18.52C14.1869 18.52 13.3649 18.406 12.7769 18.178C12.1889 17.962 11.7809 17.638 11.5529 17.206C11.3249 16.786 11.2109 16.234 11.2109 15.55V12.328C11.2109 11.788 11.1269 11.41 10.9589 11.194C10.8029 10.978 10.4969 10.87 10.0409 10.87V8.548C10.4969 8.548 10.8029 8.44 10.9589 8.224C11.1269 7.996 11.2109 7.612 11.2109 7.072V3.85C11.2109 3.154 11.3249 2.596 11.5529 2.176C11.7809 1.744 12.1889 1.42 12.7769 1.204C13.3649 0.987999 14.1869 0.879999 15.2429 0.879999V2.86ZM114.568 0.879999C115.624 0.879999 116.44 0.987999 117.016 1.204C117.604 1.42 118.012 1.744 118.24 2.176C118.468 2.596 118.582 3.154 118.582 3.85V7.072C118.582 7.612 118.666 7.996 118.834 8.224C119.002 8.44 119.308 8.548 119.752 8.548V10.87C119.308 10.87 119.002 10.978 118.834 11.194C118.666 11.41 118.582 11.788 118.582 12.328V15.55C118.582 16.234 118.468 16.786 118.24 17.206C118.012 17.638 117.604 17.962 117.016 18.178C116.44 18.406 115.624 18.52 114.568 18.52V16.54C115.084 16.54 115.438 16.456 115.63 16.288C115.822 16.132 115.918 15.856 115.918 15.46V12.112C115.918 11.368 116.074 10.816 116.386 10.456C116.698 10.096 117.172 9.85 117.808 9.718C117.16 9.55 116.686 9.292 116.386 8.944C116.086 8.596 115.936 8.044 115.936 7.288V3.94C115.936 3.544 115.84 3.268 115.648 3.112C115.456 2.944 115.096 2.86 114.568 2.86V0.879999Z" fill="#707CFF"/>
<path d="M20.9168 3.526C22.5608 3.526 23.8388 3.868 24.7508 4.552C25.6628 5.236 26.1188 6.25 26.1188 7.594C26.1188 8.998 25.6688 10.06 24.7688 10.78C23.8808 11.488 22.6868 11.842 21.1868 11.842H19.8368V16H16.8848V3.526H20.9168ZM20.9348 9.718C21.6308 9.718 22.1588 9.556 22.5188 9.232C22.8908 8.896 23.0768 8.35 23.0768 7.594C23.0768 6.286 22.3448 5.632 20.8808 5.632H19.8368V9.718H20.9348ZM34.2882 13.228C34.2882 13.588 34.3362 13.852 34.4322 14.02C34.5402 14.188 34.7082 14.314 34.9362 14.398L34.3422 16.252C33.7542 16.204 33.2742 16.078 32.9022 15.874C32.5302 15.658 32.2422 15.322 32.0382 14.866C31.4142 15.826 30.4542 16.306 29.1582 16.306C28.2102 16.306 27.4542 16.03 26.8902 15.478C26.3262 14.926 26.0442 14.206 26.0442 13.318C26.0442 12.274 26.4282 11.476 27.1962 10.924C27.9642 10.372 29.0742 10.096 30.5262 10.096H31.4982V9.682C31.4982 9.118 31.3782 8.734 31.1382 8.53C30.8982 8.314 30.4782 8.206 29.8782 8.206C29.5662 8.206 29.1882 8.254 28.7442 8.35C28.3002 8.434 27.8442 8.554 27.3762 8.71L26.7282 6.838C27.3282 6.61 27.9402 6.436 28.5642 6.316C29.2002 6.196 29.7882 6.136 30.3282 6.136C31.6962 6.136 32.6982 6.418 33.3342 6.982C33.9702 7.546 34.2882 8.392 34.2882 9.52V13.228ZM29.9862 14.272C30.6342 14.272 31.1382 13.966 31.4982 13.354V11.662H30.7962C30.1482 11.662 29.6622 11.776 29.3382 12.004C29.0262 12.232 28.8702 12.586 28.8702 13.066C28.8702 13.45 28.9662 13.75 29.1582 13.966C29.3622 14.17 29.6382 14.272 29.9862 14.272ZM44.6175 16H42.1515L42.0255 14.794C41.3295 15.802 40.3635 16.306 39.1275 16.306C38.2515 16.306 37.5855 16.042 37.1295 15.514C36.6855 14.986 36.4635 14.248 36.4635 13.3V6.442H39.3075V12.94C39.3075 13.408 39.3795 13.738 39.5235 13.93C39.6795 14.11 39.9135 14.2 40.2255 14.2C40.8255 14.2 41.3415 13.828 41.7735 13.084V6.442H44.6175V16ZM49.3923 16.306C48.5643 16.306 47.9163 16.072 47.4483 15.604C46.9923 15.124 46.7643 14.446 46.7643 13.57V2.644L49.6083 2.338V13.462C49.6083 13.858 49.7703 14.056 50.0943 14.056C50.2623 14.056 50.4183 14.026 50.5623 13.966L51.1203 15.982C50.6043 16.198 50.0283 16.306 49.3923 16.306ZM56.2501 6.136C57.7141 6.136 58.8601 6.586 59.6881 7.486C60.5161 8.374 60.9301 9.622 60.9301 11.23C60.9301 12.25 60.7381 13.144 60.3541 13.912C59.9821 14.668 59.4421 15.256 58.7341 15.676C58.0381 16.096 57.2101 16.306 56.2501 16.306C54.7981 16.306 53.6521 15.862 52.8121 14.974C51.9841 14.074 51.5701 12.82 51.5701 11.212C51.5701 10.192 51.7561 9.304 52.1281 8.548C52.5121 7.78 53.0521 7.186 53.7481 6.766C54.4561 6.346 55.2901 6.136 56.2501 6.136ZM56.2501 8.224C55.6741 8.224 55.2421 8.47 54.9541 8.962C54.6661 9.442 54.5221 10.192 54.5221 11.212C54.5221 12.256 54.6601 13.018 54.9361 13.498C55.2241 13.978 55.6621 14.218 56.2501 14.218C56.8261 14.218 57.2581 13.978 57.5461 13.498C57.8341 13.006 57.9781 12.25 57.9781 11.23C57.9781 10.186 57.8341 9.424 57.5461 8.944C57.2701 8.464 56.8381 8.224 56.2501 8.224ZM76.2893 3.526L72.8153 16H69.1433L65.5433 3.526H68.6573L71.0333 13.696L73.2653 3.526H76.2893ZM80.003 6.442V16H77.159V6.442H80.003ZM78.563 1.402C79.055 1.402 79.457 1.558 79.769 1.87C80.093 2.17 80.255 2.554 80.255 3.022C80.255 3.49 80.093 3.88 79.769 4.192C79.457 4.492 79.055 4.642 78.563 4.642C78.071 4.642 77.669 4.492 77.357 4.192C77.045 3.88 76.889 3.49 76.889 3.022C76.889 2.554 77.045 2.17 77.357 1.87C77.669 1.558 78.071 1.402 78.563 1.402ZM86.379 6.136C87.039 6.136 87.633 6.232 88.161 6.424C88.689 6.616 89.187 6.91 89.655 7.306L88.431 8.998C87.831 8.542 87.225 8.314 86.613 8.314C85.977 8.314 85.497 8.548 85.173 9.016C84.849 9.484 84.687 10.24 84.687 11.284C84.687 12.292 84.849 13.006 85.173 13.426C85.497 13.846 85.965 14.056 86.577 14.056C86.901 14.056 87.195 14.008 87.459 13.912C87.723 13.804 88.041 13.636 88.413 13.408L89.655 15.172C88.707 15.928 87.633 16.306 86.433 16.306C85.461 16.306 84.621 16.102 83.913 15.694C83.205 15.274 82.659 14.692 82.275 13.948C81.891 13.192 81.699 12.31 81.699 11.302C81.699 10.294 81.891 9.4 82.275 8.62C82.659 7.84 83.205 7.234 83.913 6.802C84.621 6.358 85.443 6.136 86.379 6.136ZM96.8463 15.55C96.4983 15.79 96.0903 15.976 95.6223 16.108C95.1663 16.24 94.7103 16.306 94.2543 16.306C92.1663 16.294 91.1223 15.142 91.1223 12.85V8.422H89.7723V6.442H91.1223V4.372L93.9663 4.048V6.442H96.1623L95.8563 8.422H93.9663V12.814C93.9663 13.258 94.0383 13.576 94.1823 13.768C94.3263 13.96 94.5543 14.056 94.8663 14.056C95.1903 14.056 95.5323 13.954 95.8923 13.75L96.8463 15.55ZM101.619 6.136C103.083 6.136 104.229 6.586 105.057 7.486C105.885 8.374 106.299 9.622 106.299 11.23C106.299 12.25 106.107 13.144 105.723 13.912C105.351 14.668 104.811 15.256 104.103 15.676C103.407 16.096 102.579 16.306 101.619 16.306C100.167 16.306 99.0213 15.862 98.1813 14.974C97.3533 14.074 96.9393 12.82 96.9393 11.212C96.9393 10.192 97.1253 9.304 97.4973 8.548C97.8813 7.78 98.4213 7.186 99.1173 6.766C99.8253 6.346 100.659 6.136 101.619 6.136ZM101.619 8.224C101.043 8.224 100.611 8.47 100.323 8.962C100.035 9.442 99.8913 10.192 99.8913 11.212C99.8913 12.256 100.029 13.018 100.305 13.498C100.593 13.978 101.031 14.218 101.619 14.218C102.195 14.218 102.627 13.978 102.915 13.498C103.203 13.006 103.347 12.25 103.347 11.23C103.347 10.186 103.203 9.424 102.915 8.944C102.639 8.464 102.207 8.224 101.619 8.224ZM113.175 6.172C113.523 6.172 113.841 6.214 114.129 6.298L113.679 9.052C113.319 8.968 113.031 8.926 112.815 8.926C112.251 8.926 111.819 9.124 111.519 9.52C111.231 9.904 111.003 10.486 110.835 11.266V16H107.991V6.442H110.475L110.709 8.296C110.925 7.636 111.249 7.12 111.681 6.748C112.125 6.364 112.623 6.172 113.175 6.172Z" fill="white"/>
</svg>
