<svg width="49" height="48" viewBox="0 0 49 48" fill="none" xmlns="http://www.w3.org/2000/svg">
<path d="M24.5972 20.2201C26.6572 20.2201 28.3372 21.9001 28.3372 24.0001C28.3372 26.0001 26.6572 27.7001 24.5972 27.7001C22.5372 27.7001 20.8572 26.0001 20.8572 24.0001C20.8572 21.9001 22.5372 20.2201 24.5972 20.2201ZM15.3372 40.0001C16.5972 40.7601 19.3572 39.6001 22.5372 36.6001C21.4972 35.4201 20.4772 34.1401 19.5172 32.8001C17.9056 32.6447 16.3034 32.4044 14.7172 32.0801C13.6972 36.3601 14.0772 39.3001 15.3372 40.0001ZM16.7572 28.5201L16.1772 27.5001C15.9572 28.0801 15.7372 28.6601 15.5972 29.2201C16.1372 29.3401 16.7372 29.4401 17.3572 29.5401L16.7572 28.5201ZM29.8372 27.0001L31.4572 24.0001L29.8372 21.0001C29.2372 19.9401 28.5972 19.0001 28.0172 18.0601C26.9372 18.0001 25.7972 18.0001 24.5972 18.0001C23.3972 18.0001 22.2572 18.0001 21.1772 18.0601C20.5972 19.0001 19.9572 19.9401 19.3572 21.0001L17.7372 24.0001L19.3572 27.0001C19.9572 28.0601 20.5972 29.0001 21.1772 29.9401C22.2572 30.0001 23.3972 30.0001 24.5972 30.0001C25.7972 30.0001 26.9372 30.0001 28.0172 29.9401C28.5972 29.0001 29.2372 28.0601 29.8372 27.0001ZM24.5972 13.5601C24.2172 14.0001 23.8172 14.4601 23.4172 15.0001H25.7772C25.3772 14.4601 24.9772 14.0001 24.5972 13.5601ZM24.5972 34.4401C24.9772 34.0001 25.3772 33.5401 25.7772 33.0001H23.4172C23.8172 33.5401 24.2172 34.0001 24.5972 34.4401ZM33.8372 8.00006C32.5972 7.24006 29.8372 8.40006 26.6572 11.4001C27.6972 12.5801 28.7172 13.8601 29.6772 15.2001C31.3172 15.3601 32.9372 15.6001 34.4772 15.9201C35.4972 11.6401 35.1172 8.70006 33.8372 8.00006ZM32.4372 19.4801L33.0172 20.5001C33.2372 19.9201 33.4572 19.3401 33.5972 18.7801C33.0572 18.6601 32.4572 18.5601 31.8372 18.4601L32.4372 19.4801ZM35.3372 5.38006C38.2772 7.06006 38.5972 11.4801 37.3572 16.6401C42.4372 18.1401 46.0972 20.6201 46.0972 24.0001C46.0972 27.3801 42.4372 29.8601 37.3572 31.3601C38.5972 36.5201 38.2772 40.9401 35.3372 42.6201C32.4172 44.3001 28.4372 42.3801 24.5972 38.7201C20.7572 42.3801 16.7772 44.3001 13.8372 42.6201C10.9172 40.9401 10.5972 36.5201 11.8372 31.3601C6.75717 29.8601 3.09717 27.3801 3.09717 24.0001C3.09717 20.6201 6.75717 18.1401 11.8372 16.6401C10.5972 11.4801 10.9172 7.06006 13.8372 5.38006C16.7772 3.70006 20.7572 5.62006 24.5972 9.28006C28.4372 5.62006 32.4172 3.70006 35.3372 5.38006ZM34.7572 24.0001C35.4372 25.5001 36.0372 27.0001 36.5372 28.5201C40.7372 27.2601 43.0972 25.4601 43.0972 24.0001C43.0972 22.5401 40.7372 20.7401 36.5372 19.4801C36.0372 21.0001 35.4372 22.5001 34.7572 24.0001ZM14.4372 24.0001C13.7572 22.5001 13.1572 21.0001 12.6572 19.4801C8.45717 20.7401 6.09717 22.5401 6.09717 24.0001C6.09717 25.4601 8.45717 27.2601 12.6572 28.5201C13.1572 27.0001 13.7572 25.5001 14.4372 24.0001ZM32.4372 28.5201L31.8372 29.5401C32.4572 29.4401 33.0572 29.3401 33.5972 29.2201C33.4572 28.6601 33.2372 28.0801 33.0172 27.5001L32.4372 28.5201ZM26.6572 36.6001C29.8372 39.6001 32.5972 40.7601 33.8372 40.0001C35.1172 39.3001 35.4972 36.3601 34.4772 32.0801C32.9372 32.4001 31.3172 32.6401 29.6772 32.8001C28.7172 34.1401 27.6972 35.4201 26.6572 36.6001ZM16.7572 19.4801L17.3572 18.4601C16.7372 18.5601 16.1372 18.6601 15.5972 18.7801C15.7372 19.3401 15.9572 19.9201 16.1772 20.5001L16.7572 19.4801ZM22.5372 11.4001C19.3572 8.40006 16.5972 7.24006 15.3372 8.00006C14.0772 8.70006 13.6972 11.6401 14.7172 15.9201C16.3034 15.5958 17.9056 15.3554 19.5172 15.2001C20.4772 13.8601 21.4972 12.5801 22.5372 11.4001Z" fill="#73D3FC"/>
</svg>
