<svg width="48" height="48" viewBox="0 0 48 48" fill="none" xmlns="http://www.w3.org/2000/svg">
<g clip-path="url(#clip0_128_246)">
<path d="M36.75 0H11.25C5.0368 0 0 5.0368 0 11.25V36.75C0 42.9632 5.0368 48 11.25 48H36.75C42.9632 48 48 42.9632 48 36.75V11.25C48 5.0368 42.9632 0 36.75 0Z" fill="#CD6799"/>
<mask id="mask0_128_246" style="mask-type:luminance" maskUnits="userSpaceOnUse" x="5" y="9" width="38" height="30">
<path d="M5.25 9.9375H42.75V38.0454H5.25V9.9375Z" fill="white"/>
</mask>
<g mask="url(#mask0_128_246)">
<path d="M37.5201 26.0931C36.2125 26.0998 35.0762 26.4148 34.1246 26.8802C33.7755 26.1889 33.4264 25.5728 33.3647 25.1209C33.2963 24.5938 33.2141 24.2721 33.2963 23.6423C33.3784 23.0124 33.7481 22.1158 33.7412 22.0474C33.7343 21.9789 33.6591 21.6572 32.9061 21.6503C32.1531 21.6433 31.5028 21.7941 31.4275 21.9926C31.3521 22.191 31.2085 22.6429 31.1126 23.1084C30.9825 23.793 29.6065 26.2369 28.8193 27.5169C28.566 27.0173 28.347 26.5791 28.299 26.2299C28.2306 25.7029 28.1485 25.3811 28.2306 24.7513C28.3127 24.1215 28.6825 23.2247 28.6755 23.1563C28.6686 23.0878 28.5934 22.7661 27.8404 22.7593C27.0874 22.7526 26.437 22.9029 26.3618 23.1015C26.2864 23.3001 26.2043 23.7656 26.0468 24.2173C25.8895 24.6692 24.0617 28.7492 23.5825 29.8033C23.3888 30.2299 23.1857 30.6522 22.9733 31.0697C22.9733 31.0697 22.9663 31.0903 22.9459 31.1244C22.8791 31.2554 22.8106 31.3855 22.7404 31.5146V31.5216C22.6378 31.7064 22.5281 31.8774 22.4734 31.8774C22.4323 31.8774 22.3571 31.3847 22.4871 30.7138C22.761 29.2967 23.4113 27.0924 23.4045 27.0173C23.4045 26.9762 23.5277 26.5928 22.98 26.3942C22.446 26.1956 22.2544 26.5243 22.2064 26.5243C22.1586 26.5243 22.1243 26.6408 22.1243 26.6408C22.1243 26.6408 22.72 24.1626 20.988 24.1626C19.9063 24.1626 18.414 25.3468 17.6749 26.4148C16.8344 26.8722 15.9946 27.3308 15.1555 27.7907C14.7518 28.0166 14.3342 28.2426 13.9438 28.4548C13.9165 28.4274 13.8891 28.3931 13.8617 28.3658C11.767 26.1272 7.89246 24.546 8.05671 21.5408C8.1184 20.4454 8.4949 17.5703 15.4978 14.079C21.2618 11.2382 25.8484 12.0253 26.6425 13.7709C27.7787 16.2628 24.1849 20.8903 18.2293 21.5612C15.9565 21.8145 14.7655 20.9383 14.4643 20.6098C14.1493 20.2674 14.1013 20.247 13.9849 20.3154C13.7933 20.418 13.9165 20.7261 13.9849 20.904C14.163 21.3696 14.8954 22.191 16.1344 22.5949C17.2298 22.9509 19.8926 23.1495 23.1169 21.9036C26.7246 20.5071 29.545 16.6254 28.7166 13.374C27.8884 10.0744 22.4119 8.98595 17.2298 10.8274C14.1491 11.9228 10.8086 13.6478 8.40583 15.8931C5.55115 18.5631 5.09946 20.8836 5.28433 21.8556C5.94827 25.3058 10.7059 27.5511 12.609 29.2146C12.5132 29.2693 12.4241 29.3173 12.349 29.3584C11.3974 29.8307 7.76927 31.7269 6.86552 33.7328C5.83877 36.0054 7.02996 37.6346 7.81708 37.8536C10.261 38.5314 12.7733 37.3129 14.122 35.3003C15.4706 33.2876 15.3062 30.6728 14.6831 29.4748C14.6763 29.4597 14.6671 29.4458 14.6558 29.4338C14.9023 29.2899 15.1555 29.1394 15.402 28.9956C15.8551 28.7279 16.3138 28.4699 16.7779 28.2219C16.5452 28.8587 16.374 29.6184 16.2919 30.7138C16.1893 32.0008 16.7164 33.6711 17.4077 34.3283C17.7158 34.6157 18.0786 34.6226 18.3115 34.6226C19.1192 34.6226 19.482 33.9518 19.8859 33.1577C20.3786 32.1855 20.8238 31.056 20.8238 31.056C20.8238 31.056 20.2691 34.1093 21.7751 34.1093C22.3228 34.1093 22.8773 33.3973 23.1238 33.0345V33.0413C23.1238 33.0413 23.1375 33.0208 23.1649 32.9728C23.2196 32.8838 23.2538 32.829 23.2538 32.829V32.8153C23.473 32.4321 23.9657 31.5626 24.6983 30.1181C25.6429 28.2563 26.5534 25.9288 26.5534 25.9288C26.5534 25.9288 26.6355 26.4969 26.9162 27.4416C27.0805 27.9962 27.4228 28.6054 27.6966 29.1941C27.4776 29.5022 27.3407 29.6732 27.3407 29.6732L27.3475 29.6801C27.1695 29.9128 26.9779 30.1661 26.7656 30.4125C26.0194 31.3026 25.1295 32.3226 25.0063 32.6169C24.8625 32.9661 24.8968 33.2192 25.1706 33.4247C25.3691 33.5753 25.725 33.5957 26.0878 33.5753C26.7587 33.5273 27.2312 33.363 27.4639 33.2603C27.8267 33.1303 28.2512 32.9318 28.6481 32.6374C29.3807 32.0966 29.8256 31.323 29.7846 30.303C29.764 29.7416 29.5791 29.1804 29.3533 28.6532C29.4218 28.5574 29.4833 28.4616 29.5517 28.3658C30.7088 26.6749 31.6054 24.8198 31.6054 24.8198C31.6054 24.8198 31.6875 25.3879 31.9682 26.3327C32.1051 26.8118 32.3858 27.3321 32.6323 27.8387C31.5439 28.7218 30.873 29.7486 30.6334 30.4194C30.2021 31.6654 30.5376 32.2266 31.1741 32.3567C31.4618 32.4184 31.8724 32.2815 32.1737 32.1514C32.557 32.0282 33.0088 31.8159 33.4401 31.5009C34.1725 30.9602 34.8776 30.2072 34.8366 29.1872C34.816 28.7218 34.6928 28.263 34.5216 27.8181C35.4458 27.4348 36.637 27.2226 38.1566 27.4005C41.4152 27.7839 42.0587 29.817 41.9353 30.6728C41.8121 31.5283 41.1276 31.9939 40.9016 32.1377C40.6759 32.2815 40.6005 32.3293 40.6211 32.4321C40.6485 32.5826 40.758 32.5757 40.9496 32.5483C41.2166 32.5005 42.661 31.857 42.7226 30.2826C42.8254 28.2699 40.9086 26.0724 37.5201 26.0931ZM12.3831 34.5679C11.3016 35.7452 9.79558 36.1903 9.14514 35.8138C8.44689 35.4098 8.72065 33.6711 10.0489 32.4251C10.8565 31.6654 11.8971 30.9602 12.5884 30.5289C12.7459 30.4331 12.9786 30.2963 13.2593 30.1251C13.3073 30.0977 13.3346 30.084 13.3346 30.084L13.4989 29.9813C13.9849 31.7612 13.5193 33.3289 12.3831 34.5679ZM20.2556 29.2146C19.8791 30.132 19.092 32.4799 18.6128 32.3499C18.2021 32.2403 17.9488 30.4605 18.5306 28.7012C18.825 27.8181 19.4479 26.7639 19.8107 26.3531C20.3995 25.6959 21.0497 25.4769 21.2072 25.7439C21.4058 26.0931 20.4885 28.6395 20.2556 29.2146ZM26.7521 32.3226C26.5946 32.4047 26.4441 32.4594 26.3756 32.4184C26.3276 32.391 26.4441 32.2815 26.4441 32.2815C26.4441 32.2815 27.2588 31.4051 27.5805 31.0082C27.7652 30.7753 27.9844 30.5016 28.2171 30.1935V30.2826C28.2171 31.3299 27.204 32.0349 26.7521 32.3226ZM31.7631 31.1792C31.6466 31.0971 31.6673 30.8233 32.0575 29.9676C32.208 29.6321 32.5641 29.0709 33.1733 28.53C33.2417 28.7492 33.2897 28.9613 33.2828 29.1598C33.276 30.4811 32.3312 30.9739 31.7631 31.1792Z" fill="white"/>
</g>
</g>
<defs>
<clipPath id="clip0_128_246">
<rect width="48" height="48" fill="white"/>
</clipPath>
</defs>
</svg>
