<svg width="48" height="48" viewBox="0 0 48 48" fill="none" xmlns="http://www.w3.org/2000/svg">
<g clip-path="url(#clip0_104_85)">
<path d="M36.75 0H11.25C5.0368 0 0 5.0368 0 11.25V36.75C0 42.9632 5.0368 48 11.25 48H36.75C42.9632 48 48 42.9632 48 36.75V11.25C48 5.0368 42.9632 0 36.75 0Z" fill="url(#paint0_linear_104_85)"/>
<path d="M2.15382 24.2024L11.5858 28.0244V30.6998L0.420197 25.5265V23.9567L2.15382 24.2024ZM11.5858 21.063L2.16751 24.9394L0.420384 25.1307V23.5472L11.5856 18.3876L11.5858 21.063ZM45.2571 24.7484L35.5521 20.9674V18.3602L47.209 23.5199V25.117L45.2571 24.7484ZM35.5521 28.0789L45.2845 24.216L47.209 23.9294V25.5128L35.5521 30.6861V28.0789Z" fill="white"/>
<path fill-rule="evenodd" clip-rule="evenodd" d="M33.0144 11.456C32.9604 12.3122 32.5747 13.2062 32.6822 14.0385C33.3559 15.2299 34.8386 15.4198 36.0619 15.5015C36.9094 15.653 36.8987 15.0919 36.8419 14.4615L36.8522 11.4382C35.5729 11.4429 34.2932 11.4257 33.0144 11.456ZM22.9267 13.8504C20.844 14.204 18.7327 15.1993 17.0001 16.3974C15.6054 17.4829 18.1972 18.5347 19.1376 18.7106C21.0294 18.7337 22.7074 17.4575 23.9501 16.133C24.3559 15.5762 24.8627 14.7236 24.3529 14.078C23.9636 13.7405 23.3976 13.8223 22.9267 13.8504ZM27.3587 16.8797C25.6462 17.2059 24.0169 17.9117 22.5752 18.8944C21.5182 19.2262 20.6471 20.3867 21.9568 20.9681C23.3321 22.064 24.9261 21.7955 26.1926 21.0557C27.3525 20.3662 28.6054 19.5155 29.142 18.2177C29.6488 16.7959 28.3412 16.7432 27.3587 16.8797ZM32.2166 22.389C31.8977 23.721 30.5563 24.3266 29.8427 25.382C29.2592 26.1519 29.5294 27.0589 30.1937 27.6649C30.5171 28.3355 31.0841 28.7104 31.6922 28.1278C33.2582 27.0632 33.6913 24.9894 33.6262 23.1926C33.7419 22.4505 32.8905 23.1214 32.2166 22.389ZM26.2573 24.8908C24.1777 25.2467 22.0978 26.2599 20.3644 27.4562C19.0187 28.5401 21.5531 29.5522 22.5011 29.7127C24.4281 29.7155 26.1469 28.4737 27.3652 27.0634C27.789 26.5033 28.3026 25.4156 27.4635 24.9703C27.0883 24.8113 26.6527 24.858 26.2573 24.8908Z" fill="#B956A6"/>
<path fill-rule="evenodd" clip-rule="evenodd" d="M17.0001 16.3974C15.4007 17.0373 13.858 17.8143 12.3343 18.6281C12.0512 19.6809 12.2783 20.9846 12.205 22.139C12.1993 26.8858 12.202 31.6327 12.2012 36.3794H15.73C16.4425 35.7086 17.335 35.2175 18.109 34.6083C21.0891 32.471 24.0683 30.3254 27.0445 28.1941C27.2635 28.2926 27.1232 26.9058 26.6428 27.869C25.5045 28.9402 23.9936 29.8213 22.3944 29.7352C21.4869 29.4367 20.0241 28.9303 20.0149 27.8182C20.6537 27.0661 18.8363 28.212 18.339 28.376C16.7224 29.1523 15.144 30.0191 13.524 30.7809C13.9133 30.3628 14.6415 29.9729 15.1579 29.5582C18.8466 26.9103 22.5343 24.2521 26.2318 21.6063C26.943 21.107 27.63 20.5623 28.3631 20.0956C28.4301 20.3542 28.5557 18.8594 28.0105 19.7797C26.899 20.8814 25.3997 21.7016 23.8185 21.7128C22.9292 21.4428 21.0351 20.7973 21.4568 19.649C21.6624 19.2461 19.5465 20.5079 20.4814 19.7964C21.4765 19.0693 22.4794 18.3551 23.4821 17.6354C23.9886 17.5974 23.8808 15.7162 23.1926 16.9297C22.0367 17.9454 20.518 18.8746 18.9259 18.6543C18.0315 18.3969 16.9585 17.8983 16.6333 16.9631C16.5257 16.7384 17.2356 16.3884 17.0001 16.3974ZM23.6261 17.5586C23.5374 17.8123 23.7868 17.4659 23.6261 17.5586V17.5586Z" fill="#FCCC44"/>
<path fill-rule="evenodd" clip-rule="evenodd" d="M33.7311 15.1406C33.2317 17.5248 32.6859 20.0202 32.2166 22.3888C33.5651 24.0883 33.6958 21.3151 33.9317 20.531C34.3129 18.8921 34.7644 17.6546 34.8122 15.9577C34.9134 15.3785 34.2328 15.0279 33.7311 15.1406ZM35.2781 17.0101C35.2359 17.2544 35.3396 17.0561 35.2781 17.0101V17.0101ZM33.705 22.3565C33.7699 22.2166 33.7699 22.4962 33.705 22.3565V22.3565Z" fill="#62777F"/>
<path fill-rule="evenodd" clip-rule="evenodd" d="M34.6155 15.4106C35.0362 17.7735 33.6425 20.6441 33.1867 22.872C34.2217 22.1104 35.0214 18.6548 35.2258 17.3021C35.2785 17.1475 35.3434 16.7582 35.3574 16.7441C35.4225 16.4158 36.0287 15.8595 36.0619 15.5016C36.4147 15.2526 34.3275 15.2126 34.6155 15.4106ZM33.7573 22.3566C33.6922 22.2167 33.6922 22.4963 33.7573 22.3566V22.3566Z" fill="#4E5E67"/>
<path fill-rule="evenodd" clip-rule="evenodd" d="M17.0351 16.4368C16.4516 17.0211 16.6706 16.8784 17.1049 16.3926L17.0351 16.4368ZM23.3464 16.7261C22.6704 17.7418 20.2329 18.5912 19.926 18.657C21.3922 18.3823 22.7589 17.4701 23.7206 16.4018C23.5678 16.4698 23.4771 16.6298 23.3464 16.7261ZM16.6342 17.056C16.9986 17.932 18.3232 18.514 18.9669 18.6497C18.0881 18.3666 17.0537 17.8645 16.6342 17.056ZM23.5736 17.5626C23.3897 17.7797 22.7346 18.1045 22.3892 18.4232C21.6484 18.9696 20.8821 19.4773 20.1497 20.0374C20.616 20.0173 21.9825 18.9966 21.282 20.0323C21.8756 21.054 23.1681 21.7645 24.3465 21.6996C25.9027 21.4553 27.3379 20.5948 28.3695 19.3982C27.1172 20.6374 25.4616 21.8036 23.6295 21.643C22.7428 21.4382 20.3199 20.1866 21.9407 19.3093C22.5122 18.8393 23.4975 18.5931 23.6091 17.767C23.5856 17.6638 23.7778 17.5631 23.5736 17.5626ZM19.1376 18.7106C19.7272 18.6338 19.7272 18.7877 19.1376 18.7106V18.7106ZM28.3256 20.1216C25.9858 21.7517 23.6799 23.4456 21.3604 25.105C18.7316 26.9863 16.1141 28.8746 13.4861 30.7545C14.4742 30.4213 15.4642 29.7707 16.4458 29.3213C17.7977 28.6061 19.2231 28.0412 20.4879 27.1725C22.9888 25.7003 25.6337 24.2976 27.5572 22.0451C27.9771 21.5528 28.398 20.7602 28.4167 20.2271C28.3562 20.2442 28.4021 20.014 28.3256 20.1216ZM20.3644 27.456C19.9434 27.9317 19.7724 28.2716 20.2093 27.6668C20.2016 27.7369 20.5639 27.2912 20.3644 27.456ZM26.7686 27.6836C25.6597 28.8529 24.0197 29.6963 22.4809 29.7531C24.2599 29.766 25.8649 28.71 27.0701 27.4643C26.991 27.3686 26.8307 27.687 26.7686 27.6836ZM27.1074 28.0511C23.382 30.7631 19.5279 33.5762 15.7899 36.2785C16.3787 36.4631 17.661 36.5498 18.2462 35.7958C19.4912 34.9367 20.8909 34.305 22.14 33.4343C23.9488 32.2605 25.8855 30.9776 26.9128 29.005C26.9617 28.7404 27.3253 28.2645 27.1074 28.0511ZM20.0175 28.2233C20.1904 28.953 22.3515 29.7906 22.1171 29.6303C21.3202 29.3509 20.5297 28.9155 20.0175 28.2233Z" fill="#DC9624"/>
</g>
<defs>
<linearGradient id="paint0_linear_104_85" x1="0" y1="48" x2="48" y2="0" gradientUnits="userSpaceOnUse">
<stop stop-color="#DB7093"/>
<stop offset="1" stop-color="#F3B661"/>
</linearGradient>
<clipPath id="clip0_104_85">
<rect width="48" height="48" fill="white"/>
</clipPath>
</defs>
</svg>
