<svg width="48" height="48" viewBox="0 0 48 48" fill="none" xmlns="http://www.w3.org/2000/svg">
<g clip-path="url(#clip0_104_84)">
<path d="M24.0015 9.60071C17.6014 9.60071 13.6027 12.7995 12.0015 19.1996C14.4007 16.0005 17.2016 14.8008 20.4007 15.6007C22.2274 16.056 23.5327 17.3805 24.9784 18.8482C27.3311 21.2358 30.0544 24 36.0015 24C42.4012 24 46.4002 20.8008 48.0015 14.3992C45.6015 17.6 42.8016 18.8002 39.6019 18C37.7756 17.5443 36.4717 16.2202 35.0242 14.7525C32.673 12.3648 29.9505 9.60071 24.0015 9.60071ZM12.0015 24C5.60175 24 1.60275 27.1991 0.00149536 33.6007C2.40125 30.4 5.201 29.1997 8.40075 30C10.2274 30.4556 11.5327 31.7797 12.9784 33.2475C15.3311 35.6351 18.0544 38.3992 24.0015 38.3992C30.4012 38.3992 34.4002 35.2005 36.0015 28.8003C33.6015 31.9996 30.8016 33.1992 27.6019 32.3992C25.7756 31.944 24.4717 30.6195 23.0242 29.1517C20.673 26.7641 17.9505 24 12.0015 24Z" fill="#38BDF8"/>
</g>
<defs>
<clipPath id="clip0_104_84">
<rect width="48" height="48" fill="white"/>
</clipPath>
</defs>
</svg>
