<svg width="49" height="48" viewBox="0 0 49 48" fill="none" xmlns="http://www.w3.org/2000/svg">
<g clip-path="url(#clip0_102_59)">
<path d="M37.3472 0H11.8472C5.63396 0 0.597168 5.0368 0.597168 11.25V36.75C0.597168 42.9632 5.63396 48 11.8472 48H37.3472C43.5604 48 48.5972 42.9632 48.5972 36.75V11.25C48.5972 5.0368 43.5604 0 37.3472 0Z" fill="#5967FF"/>
<path d="M11.2117 24.1592L11.1965 26.125H17.444V43.8773H21.8632V26.125H28.1107V24.1973C28.1107 23.1306 28.088 22.2392 28.0575 22.2164C28.0346 22.186 24.2327 22.1706 19.6232 22.1783L11.2346 22.2012L11.2117 24.1592ZM39.3285 22.1453C40.5474 22.4502 41.477 22.9911 42.3303 23.8748C42.7723 24.3473 43.4274 25.2083 43.4808 25.414C43.496 25.4749 41.4084 26.8769 40.1437 27.6616C40.098 27.6921 39.915 27.4939 39.7093 27.1892C39.0922 26.2902 38.4446 25.9015 37.454 25.8331C35.9988 25.7339 35.0617 26.4959 35.0694 27.7682C35.0694 28.1416 35.1227 28.3624 35.2751 28.6673C35.595 29.3301 36.1893 29.7263 38.0561 30.5339C41.4922 32.0121 42.9626 32.9873 43.877 34.3739C44.898 35.9206 45.1265 38.3892 44.4332 40.2254C43.6713 42.2215 41.7817 43.5777 39.1226 44.0273C38.2998 44.1721 36.3493 44.1492 35.4656 43.9892C33.5379 43.6463 31.7094 42.694 30.5818 41.4445C30.1398 40.9568 29.2788 39.6844 29.3323 39.5929C29.355 39.5626 29.5532 39.4407 29.774 39.3111C29.9874 39.1892 30.7952 38.7244 31.557 38.2825L32.936 37.4824L33.2255 37.9092C33.6294 38.5262 34.5131 39.3721 35.0465 39.6539C36.5778 40.4616 38.6808 40.3472 39.717 39.4178C40.1589 39.0139 40.3417 38.5949 40.3417 37.9778C40.3417 37.4215 40.2731 37.1777 39.9836 36.7587C39.6103 36.2254 38.8485 35.7758 36.6845 34.8387C34.2084 33.772 33.1417 33.1092 32.1665 32.0577C31.6027 31.4483 31.0693 30.4729 30.8484 29.6577C30.6656 28.9797 30.6198 27.2806 30.7646 26.5949C31.275 24.2026 33.0808 22.534 35.6865 22.0386C36.5323 21.8787 38.4978 21.9396 39.3285 22.1453Z" fill="black"/>
</g>
<defs>
<clipPath id="clip0_102_59">
<rect width="48" height="48" fill="white" transform="translate(0.597168)"/>
</clipPath>
</defs>
</svg>
