<svg width="319" height="294" viewBox="0 0 319 294" fill="none" xmlns="http://www.w3.org/2000/svg">
<g clip-path="url(#clip0_137_41)">
<path d="M99.91 119.99V266.68L43.74 293.3V119.99C43.74 96.42 56.29 77.29 71.79 77.29C87.29 77.29 99.79 96.42 99.79 119.99H99.91Z" fill="url(#paint0_linear_137_41)"/>
<path d="M187.53 119.99V225.18L131.35 251.8V119.99C131.35 96.42 143.92 77.29 159.42 77.29C174.92 77.29 187.42 96.42 187.42 119.99H187.53Z" fill="url(#paint1_linear_137_41)"/>
<path d="M275.16 119.99V183.67L218.98 210.29V119.99C218.98 96.42 231.54 77.29 247.03 77.29C262.52 77.29 275.1 96.42 275.1 119.99H275.16Z" fill="url(#paint2_linear_137_41)"/>
<path d="M318.88 0H0V12.95H318.88V0Z" fill="url(#paint3_linear_137_41)"/>
<path d="M298.68 25.89C295.924 25.0367 293.055 24.6019 290.17 24.6H28.68C23.5551 24.5966 18.5227 25.9646 14.1048 28.562C9.68693 31.1595 6.04457 34.8918 3.5556 39.3717C1.06663 43.8516 -0.178275 48.9158 -0.0499535 54.0391C0.078368 59.1624 1.57524 64.158 4.28537 68.5076C6.99549 72.8573 10.8201 76.4025 15.3625 78.7756C19.9049 81.1486 24.9995 82.2629 30.1177 82.003C35.236 81.7431 40.1915 80.1183 44.4701 77.2973C48.7487 74.4763 52.1944 70.5618 54.45 65.96C57.6686 59.3915 58.2692 51.8449 56.13 44.85C62.13 48.93 65.57 56.34 65.9 64.39C65.9 64.91 65.9 65.39 65.9 65.96H252.97C252.97 65.45 252.97 64.96 252.97 64.39C253.32 56.34 256.78 48.93 262.74 44.85C261.076 50.2755 261.057 56.0722 262.685 61.5086C264.313 66.945 267.515 71.7772 271.886 75.3955C276.258 79.0137 281.604 81.2557 287.249 81.8384C292.893 82.4212 298.584 81.3186 303.603 78.6698C308.622 76.021 312.744 71.9448 315.448 66.9556C318.152 61.9665 319.317 56.288 318.797 50.6371C318.277 44.9861 316.094 39.616 312.524 35.2045C308.955 30.793 304.158 27.5378 298.74 25.85L298.68 25.89Z" fill="url(#paint4_linear_137_41)"/>
</g>
<defs>
<linearGradient id="paint0_linear_137_41" x1="71.825" y1="77.29" x2="71.825" y2="293.3" gradientUnits="userSpaceOnUse">
<stop stop-color="#A8FFFA"/>
<stop offset="1" stop-color="#55D7CF"/>
</linearGradient>
<linearGradient id="paint1_linear_137_41" x1="159.44" y1="77.29" x2="159.44" y2="251.8" gradientUnits="userSpaceOnUse">
<stop stop-color="#A8FFFA"/>
<stop offset="1" stop-color="#55D7CF"/>
</linearGradient>
<linearGradient id="paint2_linear_137_41" x1="247.07" y1="77.29" x2="247.07" y2="210.29" gradientUnits="userSpaceOnUse">
<stop stop-color="#A8FFFA"/>
<stop offset="1" stop-color="#55D7CF"/>
</linearGradient>
<linearGradient id="paint3_linear_137_41" x1="159.44" y1="0" x2="159.44" y2="12.95" gradientUnits="userSpaceOnUse">
<stop stop-color="#A8FFFA"/>
<stop offset="1" stop-color="#55D7CF"/>
</linearGradient>
<linearGradient id="paint4_linear_137_41" x1="159.429" y1="24.6" x2="159.429" y2="82.04" gradientUnits="userSpaceOnUse">
<stop stop-color="#A8FFFA"/>
<stop offset="1" stop-color="#55D7CF"/>
</linearGradient>
<clipPath id="clip0_137_41">
<rect width="318.88" height="293.31" fill="white"/>
</clipPath>
</defs>
</svg>
