<svg width="48" height="48" viewBox="0 0 48 48" fill="none" xmlns="http://www.w3.org/2000/svg">
<path d="M24.4948 16.9972C20.9142 16.9972 17.9921 19.9193 17.9921 23.5C17.9921 27.0807 20.9142 30.0028 24.4948 30.0028C28.0754 30.0028 30.9974 27.0807 30.9974 23.5C30.9974 19.9193 28.0754 16.9972 24.4948 16.9972ZM43.9978 23.5C43.9978 20.8072 44.0222 18.1388 43.871 15.4508C43.7198 12.3287 43.0075 9.55783 40.7245 7.27479C38.4367 4.98687 35.6707 4.27951 32.5487 4.12829C29.8559 3.97706 27.1875 4.00145 24.4996 4.00145C21.8069 4.00145 19.1385 3.97706 16.4506 4.12829C13.3285 4.27951 10.5577 4.99174 8.27473 7.27479C5.98685 9.56271 5.27951 12.3287 5.12828 15.4508C4.97706 18.1436 5.00145 20.8121 5.00145 23.5C5.00145 26.1879 4.97706 28.8612 5.12828 31.5492C5.27951 34.6713 5.99173 37.4422 8.27473 39.7252C10.5626 42.0131 13.3285 42.7205 16.4506 42.8717C19.1434 43.0229 21.8117 42.9985 24.4996 42.9985C27.1924 42.9985 29.8608 43.0229 32.5487 42.8717C35.6707 42.7205 38.4415 42.0083 40.7245 39.7252C43.0124 37.4373 43.7198 34.6713 43.871 31.5492C44.0271 28.8612 43.9978 26.1928 43.9978 23.5V23.5ZM24.4948 33.5054C18.958 33.5054 14.4896 29.0369 14.4896 23.5C14.4896 17.9631 18.958 13.4946 24.4948 13.4946C30.0315 13.4946 34.5 17.9631 34.5 23.5C34.5 29.0369 30.0315 33.5054 24.4948 33.5054ZM34.9097 15.4215C33.617 15.4215 32.5731 14.3776 32.5731 13.0848C32.5731 11.7921 33.617 10.7481 34.9097 10.7481C36.2025 10.7481 37.2464 11.7921 37.2464 13.0848C37.2468 13.3918 37.1866 13.6958 37.0693 13.9795C36.952 14.2632 36.7799 14.5209 36.5629 14.738C36.3458 14.9551 36.0881 15.1272 35.8044 15.2445C35.5207 15.3617 35.2167 15.4219 34.9097 15.4215V15.4215Z" fill="url(#paint0_linear_56_402)"/>
<defs>
<linearGradient id="paint0_linear_56_402" x1="24.5" y1="4" x2="24.5" y2="43" gradientUnits="userSpaceOnUse">
<stop stop-color="#A8FFFA"/>
<stop offset="1" stop-color="#55D7CF"/>
</linearGradient>
</defs>
</svg>
