<svg width="124" height="50" viewBox="0 0 124 50" fill="none" xmlns="http://www.w3.org/2000/svg">
<g clip-path="url(#clip0_24_459)">
<path d="M75.5431 20.5808L74.9585 18.3529H67.861L67.2763 20.5808H62.3986L67.8854 0.223152H74.9308L80.416 20.5808H75.5431ZM68.9424 14.3693H73.8722L71.3934 5.18065L68.9424 14.3693Z" fill="#8BD9D4"/>
<path d="M97.5701 0.223152V20.6085H92.8911L88.046 10.7782V20.6085H83.367V0.223152H88.0736L92.8911 10.472V0.223152H97.5701Z" fill="#8BD9D4"/>
<path d="M109.112 16.7649C109.362 16.6548 109.589 16.4991 109.781 16.3056C109.975 16.1108 110.134 15.8851 110.254 15.6379C110.373 15.3901 110.435 15.1183 110.434 14.8431H115.114C115.119 15.6538 114.967 16.4579 114.667 17.2111C114.375 17.9468 113.931 18.6127 113.364 19.1654C112.757 19.7475 112.037 20.1977 111.247 20.4879C110.314 20.8278 109.325 20.9934 108.332 20.9765H107.69C106.696 20.9935 105.708 20.8278 104.773 20.4879C103.985 20.1969 103.264 19.7468 102.656 19.1654C102.089 18.6128 101.646 17.9469 101.353 17.2111C101.054 16.4579 100.902 15.6538 100.907 14.8431L100.879 5.79292H100.907C100.939 5.01428 101.119 4.24879 101.436 3.5373C101.749 2.83685 102.2 2.20693 102.762 1.68556C103.368 1.13356 104.08 0.711725 104.855 0.44619C105.766 0.135647 106.724 -0.0153128 107.687 -4.76788e-05H108.329C109.322 -0.0178382 110.31 0.147794 111.244 0.488536C112.034 0.778071 112.755 1.22838 113.361 1.81097C113.928 2.36369 114.372 3.02959 114.664 3.7653C114.964 4.518 115.115 5.32151 115.11 6.13167H110.434C110.436 5.85628 110.379 5.58369 110.269 5.33131C110.159 5.07893 109.997 4.85231 109.794 4.66592C109.603 4.46743 109.374 4.30958 109.121 4.20183C108.867 4.09409 108.594 4.03867 108.319 4.03891H107.679C107.403 4.03864 107.13 4.09404 106.876 4.20178C106.623 4.30952 106.393 4.46739 106.202 4.66592C105.999 4.85231 105.837 5.07893 105.727 5.33131C105.617 5.58369 105.561 5.85628 105.562 6.13167V14.848C105.559 15.1215 105.614 15.3924 105.725 15.6428C105.835 15.8918 105.991 16.1182 106.184 16.3105C106.379 16.5064 106.611 16.6623 106.866 16.7698C107.124 16.8793 107.401 16.9348 107.681 16.9326H108.321C108.593 16.9329 108.863 16.8758 109.112 16.7649Z" fill="#8BD9D4"/>
<path d="M118.428 20.6085V0.223152H123.105V20.6085H118.428Z" fill="#8BD9D4"/>
<path d="M68.4619 28.7124V33.7921H76.004V39.0525H68.4619V44.7526H77.605V50.013H62.3677V23.4439H77.605V28.7124H68.4619Z" fill="#8BD9D4"/>
<path d="M101.91 23.4439V50H95.8161L89.5036 37.1943V50H83.4093V23.4439H89.5394L95.8161 36.7985V23.4439H101.91Z" fill="#8BD9D4"/>
<path d="M123.244 28.8492H117.511V50H111.417V28.8492H105.684V23.4439H123.244V28.8492Z" fill="#8BD9D4"/>
<path d="M16.2714 20.6589V44.549L7.12352 48.8844V20.6589C7.12352 16.8203 9.16743 13.7048 11.6918 13.7048C14.2161 13.7048 16.2519 16.8203 16.2519 20.6589H16.2714Z" fill="#8BD9D4"/>
<path d="M30.5414 20.6589V37.7903L21.3918 42.1257V20.6589C21.3918 16.8203 23.439 13.7048 25.9633 13.7048C28.4877 13.7048 30.5234 16.8203 30.5234 20.6589H30.5414Z" fill="#8BD9D4"/>
<path d="M44.8129 20.6589V31.0299L35.6633 35.3653V20.6589C35.6633 16.8203 37.7089 13.7048 40.2316 13.7048C42.7543 13.7048 44.8031 16.8203 44.8031 20.6589H44.8129Z" fill="#8BD9D4"/>
<path d="M51.9332 1.1156H1.90735e-06V3.22465H51.9332V1.1156Z" fill="#8BD9D4"/>
<path d="M48.6434 5.3337C48.1945 5.19474 47.7273 5.12392 47.2574 5.12361H4.67087C3.83623 5.12306 3.01664 5.34585 2.29714 5.76888C1.57764 6.1919 0.984445 6.79975 0.579089 7.52934C0.173732 8.25894 -0.0290143 9.08372 -0.00811571 9.9181C0.0127829 10.7525 0.256565 11.5661 0.697939 12.2745C1.13931 12.9829 1.7622 13.5602 2.50197 13.9467C3.24175 14.3332 4.07146 14.5147 4.90503 14.4723C5.7386 14.43 6.54565 14.1654 7.24247 13.706C7.93928 13.2465 8.50047 12.609 8.8678 11.8595C9.39199 10.7898 9.48981 9.56074 9.14141 8.42155C10.1186 9.08602 10.6788 10.2928 10.7326 11.6039C10.7326 11.6885 10.7326 11.7667 10.7326 11.8595H41.199C41.199 11.7765 41.199 11.6967 41.199 11.6039C41.256 10.2928 41.8195 9.08602 42.7901 8.42155C42.5192 9.30515 42.5161 10.2492 42.7812 11.1346C43.0463 12.02 43.5677 12.8069 44.2797 13.3962C44.9917 13.9855 45.8623 14.3506 46.7817 14.4455C47.701 14.5404 48.6278 14.3609 49.4452 13.9295C50.2625 13.4981 50.9338 12.8342 51.3742 12.0217C51.8146 11.2092 52.0044 10.2844 51.9196 9.36404C51.8349 8.44372 51.4794 7.56913 50.8981 6.85067C50.3167 6.1322 49.5355 5.60207 48.6531 5.32719L48.6434 5.3337Z" fill="#8BD9D4"/>
</g>
<defs>
<clipPath id="clip0_24_459">
<rect width="123.242" height="50" fill="white"/>
</clipPath>
</defs>
</svg>
